<svg id="Capa_1" enable-background="new 0 0 512 512" height="512" viewBox="0 0 512 512" width="512" xmlns="http://www.w3.org/2000/svg"><g><g><path d="m267.429 249.802c0-50.35-40.963-91.313-91.313-91.313-17.3 0-34.162 4.884-48.761 14.125-4.667 2.954-6.055 9.131-3.102 13.798 2.954 4.667 9.132 6.055 13.798 3.102 8.455-5.352 18.137-8.983 28.065-10.322v66.468l-46.983 46.983c-7.975-10.609-12.906-23.423-14.043-36.654-.473-5.502-5.311-9.582-10.819-9.107-5.503.473-9.58 5.317-9.107 10.819.229 2.669.576 5.319 1.038 7.943 2.999 17.052 10.829 32.982 22.561 45.799.904.987 1.83 1.956 2.78 2.906.005.005.01.008.014.013 17.24 17.252 40.166 26.753 64.56 26.753 50.349-.001 91.312-40.963 91.312-91.313zm-84.242 7.071c1.875-1.875 2.929-4.419 2.929-7.071v-70.597c34.603 4.879 61.313 34.67 61.313 70.597 0 39.322-31.991 71.313-71.313 71.313-15.673 0-30.564-5.032-42.852-14.318z"/><path d="m233.89 370.03c-2.985-4.561-9.357-5.751-13.86-2.76-4.54 3.016-5.773 9.335-2.76 13.86 7.151 10.739 23.778-.373 16.62-11.1z"/><path d="m275.38 414.3c-2.095-5.029-8.021-7.495-13.061-5.41-5.037 2.084-7.493 8.025-5.41 13.06 4.932 11.919 23.431 4.255 18.471-7.65z"/><path d="m259.676 368.511-42.542 42.543c-3.905 3.905-3.905 10.237 0 14.142 1.953 1.953 4.512 2.929 7.071 2.929s5.119-.977 7.071-2.929l42.542-42.543c3.905-3.905 3.905-10.237 0-14.142-3.906-3.906-10.236-3.905-14.142 0z"/><path d="m466.889 0h-147.021c-22.434 0-40.686 18.251-40.686 40.686v49.316l-.854.876h-212.463c-22.266 0-40.38 18.115-40.38 40.381v16.652h-11.059c-5.523 0-10 4.477-10 10s4.477 10 10 10h11.059v40.754h-11.059c-5.523 0-10 4.477-10 10s4.477 10 10 10h11.059v40.754h-11.059c-5.523 0-10 4.477-10 10s4.477 10 10 10h11.059v40.755h-11.059c-5.523 0-10 4.477-10 10s4.477 10 10 10h11.059v40.754h-11.059c-5.523 0-10 4.477-10 10s4.477 10 10 10h11.059v17.972c0 22.266 18.115 40.38 40.38 40.38h10.939v5.366c0 20.597 16.752 37.354 37.343 37.354h236.479c5.522 0 10-4.477 10-10v-101.612c0-5.523-4.478-10-10-10s-10 4.477-10 10v91.612h-226.479c-9.563 0-17.343-7.785-17.343-17.354v-5.366h211.925c5.522 0 10-4.477 10-10v-230.634c.269.007.539.009.808.011.111.001.22.008.332.008h20.758v83.523c0 5.523 4.478 10 10 10s10-4.477 10-10v-83.523h106.263c22.435 0 40.686-18.251 40.686-40.686v-147.293c-.002-22.435-18.253-40.686-40.687-40.686zm-168.16 449.281h-232.864c-11.238 0-20.38-9.143-20.38-20.38v-17.971h11.064c5.523 0 10-4.477 10-10s-4.477-10-10-10h-11.064v-40.754h11.064c5.523 0 10-4.477 10-10s-4.477-10-10-10h-11.064v-40.756h11.064c5.523 0 10-4.477 10-10s-4.477-10-10-10h-11.064v-40.754h11.064c5.523 0 10-4.477 10-10s-4.477-10-10-10h-11.064v-40.754h11.064c5.523 0 10-4.477 10-10s-4.477-10-10-10h-11.064v-16.652c0-11.238 9.143-20.381 20.38-20.381h192.972l-24.004 24.627c-6.052 6.21-1.49 16.98 7.164 16.98h37.186v35.495c0 14.097 7.469 27.49 19.546 34.782zm188.845-261.301c0 11.406-9.279 20.686-20.686 20.686l-147.024-.004c-11.232 0-20.681-9.431-20.681-20.681v-45.496c0-5.523-4.478-10-10-10h-23.477l30.637-31.437c1.82-1.868 2.839-4.372 2.839-6.979v-53.383c0-11.406 9.279-20.686 20.686-20.686h147.021c11.406 0 20.686 9.279 20.686 20.686v147.294z"/><path d="m359.86 352.46c-2.096-5.032-8.018-7.495-13.06-5.41-5.033 2.081-7.49 8.033-5.41 13.06 2.084 5.037 8.027 7.492 13.061 5.41 5.051-2.089 7.476-8.018 5.409-13.06z"/><path d="m392.885 57.713c-56.364 0-81.784 43.56-82.838 45.415-1.743 3.065-1.743 6.822 0 9.887 1.054 1.854 26.474 45.415 82.838 45.415 56.365 0 81.784-43.561 82.838-45.415 1.743-3.065 1.743-6.821 0-9.887-1.054-1.854-26.473-45.415-82.838-45.415zm0 67.786c-10.356 0-18.782-8.426-18.782-18.783s8.426-18.783 18.782-18.783c10.357 0 18.783 8.426 18.783 18.783s-8.426 18.783-18.783 18.783zm-62.031-17.407c4.818-6.234 14.812-16.983 30.477-23.882-4.543 6.352-7.228 14.119-7.228 22.506 0 10.335 4.071 19.731 10.684 26.69-17.717-6.728-28.776-18.593-33.933-25.314zm90.13 25.313c6.613-6.959 10.684-16.355 10.684-26.689 0-8.421-2.707-16.218-7.283-22.583 15.752 6.882 25.733 17.66 30.545 23.936-5.162 6.732-16.223 18.606-33.946 25.336z"/><path d="m93.91 217.73c2.033 4.879 7.862 7.378 12.8 5.499 5.174-1.968 7.755-8.108 5.636-13.196-2.012-4.834-7.776-7.3-12.675-5.492-5.188 1.913-7.892 8.074-5.761 13.189z"/></g></g></svg>